<svg width="136" height="82" viewBox="0 0 136 82" fill="none" xmlns="http://www.w3.org/2000/svg"><path d="M46.0045 58.9713V47.6597C46.0045 41.8196 41.2378 37.085 35.3994 37.085C32.4248 37.085 29.7274 38.3193 27.7874 40.2905C25.8659 38.3009 23.1685 37.085 20.1754 37.085C14.3371 37.085 9.57031 41.8381 9.57031 47.6597V58.9897C9.57031 60.0214 9.75507 60.9241 10.0322 61.3294C10.217 61.6979 11.2886 61.9926 12.5819 61.9926C13.8567 61.9926 14.9283 61.7163 15.1315 61.3478C15.4087 60.9609 15.6119 60.0398 15.6119 58.9713V47.6597C15.6119 45.1357 17.6627 43.1092 20.1754 43.1092C22.6881 43.1092 24.7389 45.1542 24.7389 47.6597V58.9713C24.7389 60.0214 24.9237 60.9057 25.2008 61.311C25.3856 61.6794 26.4756 61.9742 27.7874 61.9742C29.0807 61.9742 30.1338 61.6979 30.3555 61.3294C30.6327 60.9425 30.8359 60.0214 30.8359 58.9529V47.6412C30.8359 45.1173 32.8867 43.0908 35.3994 43.0908C37.9121 43.0908 39.9629 45.1357 39.9629 47.6412V58.9713C39.9629 60.003 40.1477 60.9057 40.4248 61.311C40.6096 61.6794 41.6812 61.9742 42.9745 61.9742C44.2493 61.9742 45.3209 61.6979 45.5241 61.3294C45.8013 60.9425 46.0045 60.0398 46.0045 58.9713Z" fill="#E6007E"></path><path d="M81.6813 56.3921C81.2933 56.1157 80.4065 55.9315 79.3534 55.9131H77.0254C74.5127 55.9131 72.4619 53.8682 72.4619 51.3627V31.6134C72.4619 30.5817 72.2771 29.679 72 29.2553C71.8153 28.8868 70.7437 28.592 69.4319 28.592C68.1571 28.592 67.0855 28.8684 66.8822 29.2368C66.6051 29.6421 66.4019 30.5449 66.4019 31.595V51.3627C66.4019 57.1843 71.1686 61.9374 77.0069 61.9374H79.3349C80.3695 61.9374 81.2379 61.7531 81.6444 61.4768C82.0139 61.2926 82.3095 60.224 82.3095 58.9344C82.328 57.6633 82.0323 56.6132 81.6813 56.3921Z" fill="#E6007E"></path><path d="M64.5358 56.3922C64.1478 56.1159 63.2425 55.9316 62.2078 55.9132H59.8614C57.3487 55.9132 55.2979 53.8683 55.2979 51.3628V43.7173H60.1016C61.1547 43.7173 62.0416 43.5331 62.4665 43.2567C62.836 43.0725 63.1316 42.004 63.1316 40.7144C63.1316 39.4432 62.8545 38.3747 62.485 38.172C62.097 37.8957 61.1732 37.693 60.1016 37.693H55.2979V31.5951C55.2979 30.5634 55.1132 29.6607 54.836 29.237C54.6513 28.8685 53.5797 28.5737 52.2864 28.5737C51.0115 28.5737 49.94 28.8501 49.7367 29.2185C49.4596 29.6238 49.2563 30.5265 49.2563 31.5766V51.3443C49.2563 57.166 54.0046 61.919 59.8614 61.919H62.1894C63.224 61.919 64.0924 61.7348 64.4988 61.4585C64.8684 61.2742 65.164 60.2057 65.164 58.9161C65.1824 57.6634 64.9053 56.6133 64.5358 56.3922Z" fill="#E6007E"></path><path d="M9.73682 68.9751H10.7715L12.4343 71.6833L14.0971 68.9751H15.1133V74.7046H14.1525V70.5963L12.4343 73.3045H12.3973L10.6791 70.6147V74.7046H9.73682V68.9751Z" fill="#6D6E70"></path><path d="M16.5356 72.2728V68.9751H17.4964V72.2359C17.4964 73.3045 18.0137 73.8756 18.8821 73.8756C19.7319 73.8756 20.2493 73.3413 20.2493 72.2728V68.9751H21.21V72.2359C21.21 73.9493 20.2862 74.8151 18.8636 74.8151C17.441 74.7967 16.5356 73.9308 16.5356 72.2728Z" fill="#6D6E70"></path><path d="M24.0922 68.9382H24.979L27.3809 74.723H26.3647L25.8104 73.3413H23.2238L22.6511 74.723H21.6719L24.0922 68.9382ZM25.4779 72.4386L24.5356 70.1357L23.5934 72.4386H25.4779Z" fill="#6D6E70"></path><path d="M28.2495 68.9751H29.1363L32.074 72.936V68.9751H33.0163V74.7046H32.2033L29.1918 70.6332V74.7046H28.2495V68.9751Z" fill="#6D6E70"></path><path d="M34.0874 71.849C34.0874 70.2278 35.2699 68.8645 36.9142 68.8645C37.8749 68.8645 38.4662 69.1408 39.0204 69.6383L38.4107 70.3936C37.9858 70.0251 37.5793 69.7856 36.8772 69.7856C35.8611 69.7856 35.1036 70.7068 35.1036 71.8122V71.8306C35.1036 73.0096 35.8426 73.8755 36.9696 73.8755C37.4869 73.8755 37.9488 73.7097 38.2999 73.4518V72.3648H36.8957V71.499H39.2237V73.9124C38.6879 74.3914 37.9119 74.8151 36.9327 74.8151C35.2144 74.8151 34.0874 73.5255 34.0874 71.849Z" fill="#6D6E70"></path><path d="M44.434 69.8962H42.6973V68.9751H47.1314V69.8962H45.3947V74.7046H44.434V69.8962Z" fill="#6D6E70"></path><path d="M48.1475 68.9751H49.1082V71.3516H51.7318V68.9751H52.6925V74.7046H51.7318V72.2912H49.1082V74.7046H48.1475V68.9751Z" fill="#6D6E70"></path><path d="M56.0366 68.9382H56.9235L59.3253 74.723H58.3091L57.7549 73.3413H55.1683L54.614 74.723H53.6348L56.0366 68.9382ZM57.4223 72.4386L56.48 70.1357L55.5378 72.4386H57.4223Z" fill="#6D6E70"></path><path d="M61.284 68.9751H60.3232V74.7046H61.284V68.9751Z" fill="#6D6E70"></path><path d="M65.5332 68.9382H66.4939V73.765H69.3762V74.6862H65.5332V68.9382Z" fill="#6D6E70"></path><path d="M71.3904 68.9382H70.4297V74.6677H71.3904V68.9382Z" fill="#6D6E70"></path><path d="M72.8496 68.9382H76.9328V69.8594H73.8104V71.4253H76.5632V72.3465H73.8104V74.6862H72.8496V68.9382Z" fill="#6D6E70"></path><path d="M77.9858 68.9382H82.032V69.8409H78.9466V71.3332H81.681V72.2359H78.9466V73.7834H82.069V74.6862H77.9858V68.9382Z" fill="#6D6E70"></path><path d="M104.018 7.11133C94.836 7.14817 87.2424 9.17468 85.7274 11.8276C83.6951 14.7015 82.2725 21.3522 82.2725 29.1082C82.2725 36.6984 83.6397 43.2569 85.6166 46.223C86.9653 48.968 94.799 51.0682 104.259 51.0682C113.57 51.0682 121.293 49.0233 122.827 46.3519C124.859 43.478 126.282 36.8273 126.282 29.0713C126.282 21.4627 124.914 14.9226 122.938 11.9565C121.607 9.24838 113.921 7.14817 104.591 7.11133H104.018Z" fill="url(#paint0_linear_71_424)"></path><path d="M94.7437 21.7022V19.473L94.2264 18.9756L93.7091 19.473L93.1918 18.9756L92.6745 19.473V20.081L91.9539 19.8046L89.1641 20.7258V21.7022H94.7437Z" fill="white"></path><path d="M88.3328 28.8502L87.9263 28.4633L87.409 28.9607L87.2242 28.7765L87.8155 28.1869V23.3417L86.7993 22.3101L85.7646 23.3417V28.8502L86.282 29.3844H87.8339L88.3328 28.8502Z" fill="white"></path><path d="M93.7278 22.3101L92.7116 23.3417V27.45L91.2151 26.0683V23.3417L90.1989 22.3101L88.6654 23.8576L89.1827 24.355L89.7001 23.8392L89.8848 24.0418L89.1827 24.7419V26.1052H88.9056L88.2959 27.1921L88.9056 28.2791H89.1827V28.8502L89.7185 29.3844H90.6793L91.2151 28.8502V28.2606L92.9703 29.3844H94.2266L94.7439 28.8502V23.3417L93.7278 22.3101Z" fill="white"></path><path d="M98.1805 22.2917L95.3906 23.3418V24.2446L96.3883 24.613L97.423 24.263L98.2174 23.7472L98.9749 24.263V27.3949L98.2174 27.9107L97.423 27.3949V27.2291L96.6839 26.4737L96.8687 26.2895L97.423 26.8422L97.9588 26.3263L96.4068 24.7973L95.3906 25.8289V28.2423L96.5177 29.3845H99.8987L101.026 28.2423V23.3418L98.1805 22.2917Z" fill="white"></path><path d="M115.418 22.3101L112.906 23.7655V23.3417L111.889 22.3101L110.337 23.8576L110.855 24.355L111.372 23.8392L111.557 24.0234L110.855 24.7234V28.8502L111.372 29.3844H112.388L112.906 28.8502V26.1236L114.402 25.2577V28.8502L114.919 29.3844H115.899L116.434 28.8502V23.3417L115.418 22.3101Z" fill="white"></path><path d="M121.626 22.3469L120.61 23.3418V27.3027L119.871 27.9106L119.113 27.3211V26.6763L120.074 25.7183L118.356 23.9866L118.541 23.8023L119.132 24.3734L119.649 23.876L118.097 22.3469L117.081 23.3602V25.1103L117.654 25.663L117.081 26.2526V28.2791L118.19 29.3844H121.552L122.642 28.2975V23.3418L121.626 22.3469Z" fill="white"></path><path d="M106.199 22.3101L104.647 23.8576L105.183 24.355L105.7 23.8392L105.885 24.0418L105.183 24.7603V27.3026L104.425 27.9106L103.668 27.3026V26.1973L102.67 25.184L101.635 26.1973V28.2791L102.744 29.3844H106.125L107.215 28.2975V23.3417L106.199 22.3101Z" fill="white"></path><path d="M110.005 28.4633L109.487 28.9792L109.284 28.7765L109.912 28.1686V21.0758L108.49 19.6572H107.51L106.993 20.1731L106.494 19.6572H105.497L104.462 20.6705L105.497 21.7022H107.861V28.8502L108.379 29.3845H109.894L110.411 28.8502L110.005 28.4633Z" fill="white"></path><path d="M97.4595 33.898V34.598L98.1061 35.2428L98.7528 34.6165V33.8795L98.1061 33.2532L97.4595 33.898Z" fill="url(#paint1_linear_71_424)"></path><path d="M97.4595 36.1824V36.9009L98.1061 37.5273L98.7528 36.9009V36.1824L98.1061 35.5376L97.4595 36.1824Z" fill="url(#paint2_linear_71_424)"></path><path d="M99.2148 33.8981V37.3432L99.5289 37.6748H100.139L100.471 37.3432V34.5245L100.952 34.1929L101.413 34.5245V37.3432L101.764 37.6748H102.356L102.688 37.3432V33.8981L100.952 33.2349L99.2148 33.8981Z" fill="url(#paint3_linear_71_424)"></path><path d="M91.8246 33.2901V36.2746L91.3443 36.6062L90.8824 36.2746V33.898L90.2542 33.2532L89.2935 34.2112L89.626 34.5244L89.9401 34.1928L90.0694 34.3402L89.626 34.7823V36.9931L90.3096 37.6747H92.3789L93.081 36.9746V33.2901L92.4713 32.6453L91.8246 33.2901Z" fill="url(#paint4_linear_71_424)"></path><path d="M93.543 33.898V35.7771V35.7955L94.2266 36.4772H95.7231V36.5324L96.1111 36.9193L95.9818 37.0483L95.7231 36.7719L95.3905 37.1035L95.9633 37.6747H96.6654L96.9979 37.343V35.206H94.8178V34.4322L96.3698 35.0218L96.9979 34.6349V33.8795L95.2797 33.2532L93.543 33.898Z" fill="url(#paint5_linear_71_424)"></path><path d="M105.46 33.8797V35.6483L104.518 36.2378V33.9165L103.889 33.2349L102.91 34.2113L103.243 34.5429L103.52 34.2665L103.631 34.3955L103.243 34.7824V37.4168L103.483 37.6748H104.481L105.46 37.03V37.3432L105.792 37.6748H106.402L106.735 37.3432V36.9931H106.901L107.289 36.3115L106.901 35.6298H106.735V33.8797L106.106 33.2349L105.46 33.8797Z" fill="url(#paint6_linear_71_424)"></path><path d="M100.545 31.724V32.4794L100.933 32.8663H103.168L103.723 32.4241L103.132 31.9635H101.931L101.524 32.3688L101.395 32.2399L101.672 31.9635V31.724L101.118 31.3372L100.545 31.724Z" fill="url(#paint7_linear_71_424)"></path><path d="M109.857 31.6137V31.8532L109.358 31.6874L107.603 32.2585V32.8664H111.15V31.6137L110.503 30.9504L109.857 31.6137Z" fill="#7FBD80"></path><path d="M111.63 32.2583V32.8662H115.141V32.2767L113.386 31.7056L111.63 32.2583Z" fill="#7FBD80"></path><path d="M109.875 33.8981V34.3402L109.265 34.985L109.875 35.6114V36.2562L109.376 36.5878L108.877 36.2562V33.8981L108.249 33.2349L107.27 34.2113L107.603 34.5429L107.88 34.2665L108.009 34.3955L107.603 34.7824V36.9747L108.305 37.6748H110.466L111.15 36.9931V35.4272L110.688 34.985L111.15 34.5245V33.8981L110.522 33.2349L109.875 33.8981Z" fill="url(#paint8_linear_71_424)"></path><path d="M115.603 33.8981V37.4168L115.861 37.6748H116.6L117.69 36.5878V35.8325L117.358 35.4825L117.025 35.8325V36.0167L117.228 36.2194L117.099 36.3299L116.877 36.1272V36.1088V36.1272V34.5245L117.358 34.8377L117.838 34.5245V37.4168L118.078 37.6748H118.854L119.094 37.4168V33.8981L118.448 33.2533L117.358 33.8981L116.286 33.2349L115.603 33.8981Z" fill="url(#paint9_linear_71_424)"></path><path d="M111.63 33.8981V35.3719L112.24 35.593L112.905 35.3719V34.5245L113.386 34.1929L113.866 34.5245V36.8089L113.663 37.0115L113.533 36.8826L113.829 36.5878L113.386 36.2931L112.905 36.5694V37.4168L113.145 37.6748H114.457L115.141 36.9931V33.8981L113.386 33.2349L111.63 33.8981Z" fill="url(#paint10_linear_71_424)"></path><defs><linearGradient id="paint0_linear_71_424" x1="104.285" y1="7.38172" x2="104.285" y2="50.8505" gradientUnits="userSpaceOnUse"><stop stop-color="#E6007E"></stop><stop offset="0.39" stop-color="#E5007C"></stop><stop offset="0.5557" stop-color="#E30175"></stop><stop offset="0.6789" stop-color="#DF0268"></stop><stop offset="0.7811" stop-color="#D90557"></stop><stop offset="0.8701" stop-color="#D10740"></stop><stop offset="0.9488" stop-color="#C80A24"></stop><stop offset="1" stop-color="#C00D0D"></stop></linearGradient><linearGradient id="paint1_linear_71_424" x1="98.1062" y1="31.3123" x2="98.1062" y2="37.4648" gradientUnits="userSpaceOnUse"><stop stop-color="#388FCA"></stop><stop offset="0.4072" stop-color="#388DC8"></stop><stop offset="0.5802" stop-color="#3786C2"></stop><stop offset="0.7088" stop-color="#3679B6"></stop><stop offset="0.8155" stop-color="#3468A6"></stop><stop offset="0.9078" stop-color="#315192"></stop><stop offset="0.9901" stop-color="#2E3579"></stop><stop offset="1" stop-color="#2E3175"></stop></linearGradient><linearGradient id="paint2_linear_71_424" x1="98.1062" y1="31.3123" x2="98.1062" y2="37.4648" gradientUnits="userSpaceOnUse"><stop stop-color="#388FCA"></stop><stop offset="0.4072" stop-color="#388DC8"></stop><stop offset="0.5802" stop-color="#3786C2"></stop><stop offset="0.7088" stop-color="#3679B6"></stop><stop offset="0.8155" stop-color="#3468A6"></stop><stop offset="0.9078" stop-color="#315192"></stop><stop offset="0.9901" stop-color="#2E3579"></stop><stop offset="1" stop-color="#2E3175"></stop></linearGradient><linearGradient id="paint3_linear_71_424" x1="100.952" y1="31.3125" x2="100.952" y2="37.4649" gradientUnits="userSpaceOnUse"><stop stop-color="#388FCA"></stop><stop offset="0.4072" stop-color="#388DC8"></stop><stop offset="0.5802" stop-color="#3786C2"></stop><stop offset="0.7088" stop-color="#3679B6"></stop><stop offset="0.8155" stop-color="#3468A6"></stop><stop offset="0.9078" stop-color="#315192"></stop><stop offset="0.9901" stop-color="#2E3579"></stop><stop offset="1" stop-color="#2E3175"></stop></linearGradient><linearGradient id="paint4_linear_71_424" x1="91.1867" y1="31.3124" x2="91.1867" y2="37.4649" gradientUnits="userSpaceOnUse"><stop stop-color="#388FCA"></stop><stop offset="0.4072" stop-color="#388DC8"></stop><stop offset="0.5802" stop-color="#3786C2"></stop><stop offset="0.7088" stop-color="#3679B6"></stop><stop offset="0.8155" stop-color="#3468A6"></stop><stop offset="0.9078" stop-color="#315192"></stop><stop offset="0.9901" stop-color="#2E3579"></stop><stop offset="1" stop-color="#2E3175"></stop></linearGradient><linearGradient id="paint5_linear_71_424" x1="95.275" y1="31.3123" x2="95.275" y2="37.4648" gradientUnits="userSpaceOnUse"><stop stop-color="#388FCA"></stop><stop offset="0.4072" stop-color="#388DC8"></stop><stop offset="0.5802" stop-color="#3786C2"></stop><stop offset="0.7088" stop-color="#3679B6"></stop><stop offset="0.8155" stop-color="#3468A6"></stop><stop offset="0.9078" stop-color="#315192"></stop><stop offset="0.9901" stop-color="#2E3579"></stop><stop offset="1" stop-color="#2E3175"></stop></linearGradient><linearGradient id="paint6_linear_71_424" x1="105.097" y1="31.3125" x2="105.097" y2="37.4649" gradientUnits="userSpaceOnUse"><stop stop-color="#388FCA"></stop><stop offset="0.4072" stop-color="#388DC8"></stop><stop offset="0.5802" stop-color="#3786C2"></stop><stop offset="0.7088" stop-color="#3679B6"></stop><stop offset="0.8155" stop-color="#3468A6"></stop><stop offset="0.9078" stop-color="#315192"></stop><stop offset="0.9901" stop-color="#2E3579"></stop><stop offset="1" stop-color="#2E3175"></stop></linearGradient><linearGradient id="paint7_linear_71_424" x1="102.142" y1="31.3123" x2="102.142" y2="37.4648" gradientUnits="userSpaceOnUse"><stop stop-color="#388FCA"></stop><stop offset="0.4072" stop-color="#388DC8"></stop><stop offset="0.5802" stop-color="#3786C2"></stop><stop offset="0.7088" stop-color="#3679B6"></stop><stop offset="0.8155" stop-color="#3468A6"></stop><stop offset="0.9078" stop-color="#315192"></stop><stop offset="0.9901" stop-color="#2E3579"></stop><stop offset="1" stop-color="#2E3175"></stop></linearGradient><linearGradient id="paint8_linear_71_424" x1="109.216" y1="33.0918" x2="109.216" y2="37.6679" gradientUnits="userSpaceOnUse"><stop stop-color="#7FBD80"></stop><stop offset="0.3795" stop-color="#7DBC7F"></stop><stop offset="0.5407" stop-color="#76B67B"></stop><stop offset="0.6606" stop-color="#69AD74"></stop><stop offset="0.76" stop-color="#58A06A"></stop><stop offset="0.8466" stop-color="#41905D"></stop><stop offset="0.9234" stop-color="#257C4D"></stop><stop offset="0.9932" stop-color="#04643A"></stop><stop offset="1" stop-color="#006138"></stop></linearGradient><linearGradient id="paint9_linear_71_424" x1="117.355" y1="33.0918" x2="117.355" y2="37.6679" gradientUnits="userSpaceOnUse"><stop stop-color="#7FBD80"></stop><stop offset="0.3795" stop-color="#7DBC7F"></stop><stop offset="0.5407" stop-color="#76B67B"></stop><stop offset="0.6606" stop-color="#69AD74"></stop><stop offset="0.76" stop-color="#58A06A"></stop><stop offset="0.8466" stop-color="#41905D"></stop><stop offset="0.9234" stop-color="#257C4D"></stop><stop offset="0.9932" stop-color="#04643A"></stop><stop offset="1" stop-color="#006138"></stop></linearGradient><linearGradient id="paint10_linear_71_424" x1="113.386" y1="33.0918" x2="113.386" y2="37.6679" gradientUnits="userSpaceOnUse"><stop stop-color="#7FBD80"></stop><stop offset="0.3795" stop-color="#7DBC7F"></stop><stop offset="0.5407" stop-color="#76B67B"></stop><stop offset="0.6606" stop-color="#69AD74"></stop><stop offset="0.76" stop-color="#58A06A"></stop><stop offset="0.8466" stop-color="#41905D"></stop><stop offset="0.9234" stop-color="#257C4D"></stop><stop offset="0.9932" stop-color="#04643A"></stop><stop offset="1" stop-color="#006138"></stop></linearGradient></defs></svg>